<svg xmlns="http://www.w3.org/2000/svg" xmlns:xlink="http://www.w3.org/1999/xlink" width="800" height="533" viewBox="0 0 800 533">
<rect width="800" height="533" fill="#FFFFFF"/>
<g transform="translate(81.503 13.554) scale(1.49518)"><defs
   id="defs826"><linearGradient
     id="XMLID_44_"
     gradientUnits="userSpaceOnUse"
     x1="413.20239"
     y1="296.57101"
     x2="314.1926"
     y2="-10.0842"
     gradientTransform="matrix(1,0,0,-1,-5.52e-2,840.1929)">
		<stop
   offset="0"
   style="stop-color:#D1ABB0"
   id="stop15" />
		<stop
   offset="0.2906"
   style="stop-color:#D1ABB0"
   id="stop17" />
		<stop
   offset="0.4226"
   style="stop-color:#D1ACB1"
   id="stop19" />
		<stop
   offset="0.5227"
   style="stop-color:#D0AEB3"
   id="stop21" />
		<stop
   offset="0.6066"
   style="stop-color:#CFB2B6"
   id="stop23" />
		<stop
   offset="0.6803"
   style="stop-color:#CFB5B9"
   id="stop25" />
		<stop
   offset="0.747"
   style="stop-color:#CDB2B6"
   id="stop27" />
		<stop
   offset="0.8084"
   style="stop-color:#CAACB0"
   id="stop29" />
		<stop
   offset="0.8656"
   style="stop-color:#CDA8AD"
   id="stop31" />
		<stop
   offset="0.9173"
   style="stop-color:#CEA4A9"
   id="stop33" />
		<stop
   offset="0.9607"
   style="stop-color:#CDA1A7"
   id="stop35" />
		<stop
   offset="0.9696"
   style="stop-color:#D2ABB0"
   id="stop37" />
		<stop
   offset="0.9893"
   style="stop-color:#D0ACB0"
   id="stop39" />
		<stop
   offset="1"
   style="stop-color:#CFA7AC"
   id="stop41" />
	</linearGradient><linearGradient
     id="XMLID_48_"
     gradientUnits="userSpaceOnUse"
     x1="223.75369"
     y1="104.4973"
     x2="181.72231"
     y2="158.8736"
     gradientTransform="matrix(0.9941,0.1081,0.1081,-0.9941,-19.3507,807.048)">
		<stop
   offset="0"
   style="stop-color:#DABBBF"
   id="stop179" />
		<stop
   offset="0.2246"
   style="stop-color:#D6B2B7"
   id="stop181" />
		<stop
   offset="0.49"
   style="stop-color:#D2ABB0"
   id="stop183" />
		<stop
   offset="0.7172"
   style="stop-color:#D0A8AE"
   id="stop185" />
		<stop
   offset="0.8945"
   style="stop-color:#D1AAAF"
   id="stop187" />
		<stop
   offset="1"
   style="stop-color:#D1ABB0"
   id="stop189" />
	</linearGradient></defs>

<linearGradient
   id="XMLID_43_"
   gradientUnits="userSpaceOnUse"
   x1="284.7703"
   y1="614.6003"
   x2="278.3187"
   y2="569.706"
   gradientTransform="matrix(1 0 0 -1 -0.0552 840.1929)">
	<stop
   offset="0.0056"
   style="stop-color:#E9D7D9"
   id="stop6" />
	<stop
   offset="1"
   style="stop-color:#F6F3F4"
   id="stop8" />
</linearGradient>



<linearGradient
   id="XMLID_45_"
   gradientUnits="userSpaceOnUse"
   x1="333.4592"
   y1="304.0188"
   x2="338.4594"
   y2="278.4183"
   gradientTransform="matrix(0.9997 -0.0238 -0.0238 -0.9997 1.2931 847.4858)">
	<stop
   offset="0.0056"
   style="stop-color:#D8B7BC"
   id="stop56" />
	<stop
   offset="0.0762"
   style="stop-color:#D9B8BC"
   id="stop58" />
	<stop
   offset="0.161"
   style="stop-color:#D8B7BC"
   id="stop60" />
	<stop
   offset="0.248"
   style="stop-color:#D7B5BA"
   id="stop62" />
	<stop
   offset="0.3368"
   style="stop-color:#D7B4B9"
   id="stop64" />
	<stop
   offset="0.4286"
   style="stop-color:#D8B6BB"
   id="stop66" />
	<stop
   offset="0.5281"
   style="stop-color:#D8B6BB"
   id="stop68" />
	<stop
   offset="0.816"
   style="stop-color:#D8B6BB"
   id="stop70" />
	<stop
   offset="1"
   style="stop-color:#D8B7BC"
   id="stop72" />
</linearGradient>







<linearGradient
   id="XMLID_47_"
   gradientUnits="userSpaceOnUse"
   x1="251.9622"
   y1="675.5437"
   x2="259.2551"
   y2="639.869"
   gradientTransform="matrix(1 0 0 -1 -0.0552 840.1929)">
	<stop
   offset="0"
   style="stop-color:#EBD9DB"
   id="stop130" />
	<stop
   offset="0.2246"
   style="stop-color:#EBDADC"
   id="stop132" />
	<stop
   offset="0.4321"
   style="stop-color:#EDDDDF"
   id="stop134" />
	<stop
   offset="0.6329"
   style="stop-color:#EFE1E3"
   id="stop136" />
	<stop
   offset="0.8283"
   style="stop-color:#F3E8E9"
   id="stop138" />
	<stop
   offset="1"
   style="stop-color:#F6F3F4"
   id="stop140" />
</linearGradient>























































































<g
   id="g12"
   transform="translate(-85.302303,-498.27425)">
	
		<linearGradient
   id="linearGradient2429"
   gradientUnits="userSpaceOnUse"
   x1="413.20239"
   y1="296.57101"
   x2="314.1926"
   y2="-10.0842"
   gradientTransform="matrix(1,0,0,-1,-5.52e-2,840.1929)">
		<stop
   offset="0"
   style="stop-color:#D1ABB0"
   id="stop2431" />
		<stop
   offset="0.2906"
   style="stop-color:#D1ABB0"
   id="stop2433" />
		<stop
   offset="0.4226"
   style="stop-color:#D1ACB1"
   id="stop2435" />
		<stop
   offset="0.5227"
   style="stop-color:#D0AEB3"
   id="stop2437" />
		<stop
   offset="0.6066"
   style="stop-color:#CFB2B6"
   id="stop2439" />
		<stop
   offset="0.6803"
   style="stop-color:#CFB5B9"
   id="stop2441" />
		<stop
   offset="0.747"
   style="stop-color:#CDB2B6"
   id="stop2443" />
		<stop
   offset="0.8084"
   style="stop-color:#CAACB0"
   id="stop2445" />
		<stop
   offset="0.8656"
   style="stop-color:#CDA8AD"
   id="stop2447" />
		<stop
   offset="0.9173"
   style="stop-color:#CEA4A9"
   id="stop2449" />
		<stop
   offset="0.9607"
   style="stop-color:#CDA1A7"
   id="stop2451" />
		<stop
   offset="0.9696"
   style="stop-color:#D2ABB0"
   id="stop2453" />
		<stop
   offset="0.9893"
   style="stop-color:#D0ACB0"
   id="stop2455" />
		<stop
   offset="1"
   style="stop-color:#CFA7AC"
   id="stop2457" />
	</linearGradient>
	<path
   d="M 284.905,758.696 C 278.905,768.766 279.462,776.016 280.889,786.835 C 284.272,786.271 284.231,794.552 287.098,794.425 C 288.877,803.71 283.525,806.638 284.107,815.812 C 284.199,817.246 295.386,840.718 292.289,839.835 C 294.587,840.489 296.236,840.517 298.53,839.839 C 300.442,829.612 305.903,828.767 307.688,818.819 C 308.052,816.792 305.892,794.067 300.574,797.776 C 316.637,786.577 306.66,780.366 303.657,767.911 C 315.822,776.034 323.957,780.6 340.104,778.612 C 367.122,775.284 386.21,772.842 398.52,746.719 C 400.106,743.356 401.291,739.715 403.491,736.678 C 406.065,733.121 409.982,730.838 411.407,726.459 C 412.274,723.791 411.988,721.59 413.487,719.326 C 414.298,718.103 415.938,717.558 416.889,716.164 C 420.58,710.75 416.278,707.025 417.387,701.726 C 418.352,697.126 423.576,695.134 423.705,688.925 C 423.771,685.724 421.362,682.236 422.269,679.064 C 423.031,676.404 425.996,674.076 427.152,671.285 C 428.783,667.346 429.06,663.662 427.396,659.775 C 426.771,658.312 425.306,656.398 424.992,654.916 C 424.689,653.492 425.441,652.338 425.996,650.785 C 427.582,646.349 427.885,641.097 426.453,636.631 C 425.551,633.822 424.435,632.299 425.246,629.317 C 426.033,626.422 428.197,623.942 428.012,620.753 C 427.848,617.931 425.307,615.737 424.768,613.282 C 424.137,610.407 426.409,608.759 427.539,606.497 C 428.586,604.405 428.715,601.784 428.348,599.52 C 427.647,595.219 423.869,592.864 426.383,588.571 C 429.365,583.475 432.303,578.87 428.848,573.116 C 424.762,566.331 423.748,566.809 424.19,559.177 C 424.495,553.939 424.575,550.495 421.842,545.659 C 416.117,535.53 403.618,527.143 392.824,534.583 C 382.146,541.942 384.336,555.454 386.949,566.474 C 388.299,572.162 388.822,574.156 388.113,580.009 C 388.013,580.829 388.775,605.775 393.771,602.474 C 389.826,605.081 389.165,609.306 388.462,613.726 C 387.384,620.525 390.359,621.064 391.595,626.474 C 392.349,629.783 391.329,630.605 390.531,634.581 C 389.425,640.073 392.121,644.339 392.224,648.491 C 392.296,651.462 390.03,653.663 389.346,657.061 C 388.398,661.776 391.44,663.625 391.76,667.581 C 391.935,669.731 388.686,686.267 388.007,687.319 C 385.681,690.923 379.801,691.423 377.547,694.864 C 374.476,699.552 378.281,705.489 376.164,710.274 C 374.495,714.045 368.509,713.805 366.777,718.887 C 365.29,723.254 367.579,729.311 367.524,734.033 C 357.547,733.724 348.977,741.084 347.099,750.793 C 346.649,753.121 313.856,743.557 310.618,743.373 C 299.141,742.719 290.485,749.333 284.905,758.696 z "
   id="path43"
   style="fill:url(#XMLID_44_);stroke:#C8A4A9;stroke-width:0.60000002" />
	<path
   d="M 419.94,572.512 C 419.881,573.08 419.835,573.619 419.803,574.121 C 419.589,577.478 414.867,581.242 418.694,583.656 C 421.161,585.215 426.348,581.818 428.217,580.676 C 429.473,593.387 411.404,592.916 412.709,603.533 C 413.689,611.496 419.004,607.816 423.971,606.463 C 427.047,613.186 420.636,613.262 418.242,617.35 C 415.531,621.983 415.426,630.596 422.849,627.491 C 422.808,627.399 423.533,630.632 423.546,630.809 C 422.304,630.754 418.458,632.338 415.809,632.305 C 413.136,636.059 411.542,642.696 411.978,647.186 C 412.603,653.639 419.986,655.889 424.152,649.227 C 425.191,660.936 413.371,655.29 409.24,662.95 C 403.607,673.397 414.808,677.575 423.414,676.106 C 421.641,679.077 420.061,680.95 417.373,682.479 C 413.299,684.799 415.314,679.934 411.491,685.03 C 407.51,690.337 406.549,704.055 416.861,700.106 C 414.263,706.426 408.996,701.794 404.426,703.104 C 403.269,706.053 403.743,709.643 403.65,712.989 C 407.933,710.837 412.285,715.249 417.296,713.307 C 414.776,719.325 409.009,719.795 403.919,719.041 C 404.796,719.865 405.161,721.232 405.88,722.111 C 402.84,723.92 397.276,733.547 403.628,732.486 C 402.87,733.488 401.704,735.341 401.08,736.179 C 397.848,738.232 394.27,739.173 392.306,741.81 C 388.188,740.107 375.778,752.945 371.519,756.486 C 378.783,751.144 397.04,726.916 380.398,725.129 C 380.353,724.424 380.199,723.943 379.945,723.358 C 384.005,725.866 390.028,720.899 391.614,716.95 C 387.899,714.552 385.033,709.708 386.879,705.596 C 391.023,711.979 395.649,705.575 394.031,700.602 C 394.161,700.432 395.244,699.856 395.234,699.881 C 392.454,694.619 385.228,684.385 389.742,679.061 C 392.329,685.268 398.566,688.913 398.262,680.348 C 392.627,675.991 388.973,667.098 391.841,660.496 C 393.408,663.508 395.203,668.178 400.045,667.535 C 399.41,662.265 404.319,656.773 401.95,652.691 C 401.346,652.834 400.336,653.087 399.672,653.166 C 396.104,648.641 389.616,638.523 394.563,633.463 C 397.19,636.818 399.192,644.108 403.12,639.412 C 404.927,637.252 403.915,629.17 402.535,627.025 C 394.681,631.925 391.878,616.314 394.258,611.377 C 395.022,613.531 397.826,615.94 400.284,613.775 C 401.46,612.74 400.02,606.939 401.218,604.734 C 392.429,599.957 388.441,591.832 391.811,580.707 C 391.677,580.586 393.453,580.699 393.42,580.707 C 393.248,582.437 394.136,583.859 394.274,585.369 C 403.197,580.392 382.774,573.295 392.891,564.959 C 393.641,564.34 397.071,563.721 399.03,562.041 C 404.331,557.492 402.864,547.648 409.506,544.832 C 414.518,542.707 418.599,545.623 420.409,549.756 C 422.823,555.272 420.619,565.905 419.94,572.512 z "
   id="path45"
   style="fill:#CCA1A6" />
	<path
   d="M 401.198,568.725 C 397.735,578.118 405.677,594.25 405.998,604.711 C 406.466,619.928 403.873,636.129 402.833,651.375 C 400.592,684.266 399.603,717.105 381.61,745.25 C 387.685,736.182 394.826,726.254 398.094,715.844 C 400.514,708.137 400.187,700.223 401.198,692.358 C 403.037,678.051 405.174,663.629 405.864,649.126 C 406.593,633.817 406.62,618.253 407.198,602.987 C 407.594,592.487 406.991,577.639 401.831,568.639 C 400.261,568.907 401.12,569.657 400.599,570.526"
   id="path47"
   style="fill:#D8B7BC" />
</g><g
   id="g174"
   transform="translate(-93.302303,-502.27425)">
	<path
   d="M 181.645,729.5 C 182.586,730.341 183.605,731.128 184.706,731.85 C 189.733,735.156 196.113,734.623 200.75,738.589 C 204.786,742.037 206.878,746.004 208.068,751.158 C 209.433,757.069 210.225,763.568 218.053,762.764 C 218.945,757.341 211.806,754.691 210.02,749.91 C 207.46,743.061 210.637,742.183 214.645,738.03 C 216.629,735.97 216.692,733.966 217.985,731.528 C 219.489,728.694 222.234,726.654 223.88,723.897 C 226.631,719.284 229.588,714.298 230.869,709.016 C 231.786,705.228 231.194,701.898 229.347,698.59 C 229.053,698.066 220.31,682.431 219.101,684.437 C 218.539,685.369 216.593,687.174 215.454,688.143 C 216.331,686.956 217.372,686.636 218.055,685.4 C 219.094,683.515 219.301,680.598 219.089,678.512 C 218.59,673.593 215.594,670.812 212.099,668.323 C 210.246,668.689 208.49,669.941 206.816,670.833 C 208.637,669.768 211.309,668.949 212.427,667.295 C 213.847,665.196 213.772,661.161 213.567,658.749 C 213.382,656.572 212.231,651.993 209.719,651.139 C 207.752,650.469 205.191,652.723 203.562,653.485 C 207.27,651.754 210.639,649.824 211.696,645.576 C 212.337,642.998 212.304,635.752 209.39,634.38 C 211.215,632.355 216.377,626.732 212.099,624.36 C 214.003,622.169 218.003,613.535 215.32,610.88 C 217.879,607.553 220.097,603.856 219.884,599.581 C 219.792,597.716 219.651,596.192 220.024,594.311 C 220.092,593.964 221.717,589.196 221.892,589.419 C 220.33,587.428 218.574,585.269 216.78,583.314 C 223.372,590.501 228.714,592.762 238.602,590.894 C 237.039,591.669 235.353,591.588 233.754,592.102 C 237.469,597.009 244.335,599.166 250.11,598.416 C 250.786,598.329 250.906,597.672 251.775,597.774 C 253.068,597.926 254.978,599.841 256.1,600.466 C 259.056,602.11 265.234,605.286 268.52,603.033 C 270.333,606.959 279.296,605.696 282.599,605.353 C 286.782,604.917 288.278,604.491 290.985,601.799 C 292.463,603.203 300.745,602.603 300.264,599.46 C 300.496,600.973 308.398,599.186 309.233,598.871 C 312.177,597.762 314.596,595.694 316.419,593.154 C 318.355,597.503 331.58,594.411 332.72,590.059 C 336.101,590.661 349.345,590.526 347.815,584.465 C 350.514,586.349 356.967,586.13 359.719,583.937 C 360.959,582.95 361.969,579.659 363.23,579.084 C 364.888,578.333 369.05,580.153 371.037,579.882 C 372.207,579.722 372.958,579.59 373.765,578.807 C 373.947,578.634 373.658,577.754 373.878,577.612 C 374.998,576.892 375.372,577.69 377.405,577.657 C 385.246,577.53 386.499,570.326 392.446,568.003 C 394.845,567.065 399.272,569.891 402.647,569.874 C 410.353,569.841 413.914,565.826 416.647,559.42 C 432.551,568.635 433.142,544.055 423.823,536.423 C 414.46,528.758 386.785,525.965 381.2,539.36 C 377.552,537.732 373.203,538.103 369.419,539.257 C 367.35,539.888 366.89,541.596 365.387,542.899 C 363.516,544.525 361.137,544.72 358.811,545.155 C 355.002,545.869 353.309,546.944 352.364,550.834 C 350.765,550.5 349.119,550.347 347.481,550.594 C 346.957,550.672 343.38,552.214 343.31,552.175 C 344.097,552.589 344.771,553.385 344.789,554.31 C 341.577,552.154 339.121,550.468 335.264,551.719 C 332.085,552.748 326.128,555.505 326.684,559.54 C 325.861,559.143 325.271,558.247 324.527,557.903 C 322.548,556.99 319.773,557.518 317.726,557.873 C 314.924,558.355 308.065,559.421 309.002,563.487 C 303.177,563.28 295.312,559.387 289.909,563.244 C 289.876,563.372 289.883,563.499 289.928,563.622 C 291.041,564.16 292.171,564.842 293.064,565.652 C 293.001,565.739 292.835,566.046 292.788,566.16 C 289.062,564.454 285.525,560.663 280.944,562.061 C 277.963,562.97 276.082,566.687 279.461,568.119 C 273.637,566.532 268.347,565.167 262.832,562.762 C 258.788,560.997 255.126,561.065 250.882,561.233 C 247.334,561.372 244.05,560.595 242.292,557.263 C 240.8,554.433 240.661,550.977 237.556,549.164 C 234.556,547.415 226.506,547.509 224.477,550.643 C 223.574,549.039 218.529,546.936 216.545,546.368 C 212.716,545.27 208.358,546.405 205.045,548.352 C 201.329,550.533 198.709,553.079 197.044,557.131 C 196.136,559.343 194.426,562.874 195.362,565.201 C 192.115,565.801 189.544,569.034 188.395,571.917 C 187.711,573.635 187.917,575.816 187.249,577.405 C 186.827,578.407 186.756,578.198 185.825,579.092 C 182.961,581.842 180.721,583.386 180.048,587.674 C 179.792,589.307 180.331,591.675 179.87,593.144 C 179.207,595.253 176.967,596.506 176.392,598.931 C 176.004,600.565 176.361,601.933 176.314,603.592 C 176.276,604.946 176.18,606.556 175.675,607.606 C 175.267,608.456 174.205,609.061 173.797,609.958 C 172.234,613.397 172.964,624.354 178.068,624.373 C 173.318,621.697 170.486,628.708 171.684,632.492 C 167.278,632.506 165.723,641.364 165.969,644.495 C 166.286,648.502 169.708,654.735 174.58,654.17 C 165.13,648.271 163.403,663.548 164.476,669.777 C 164.947,672.507 166.325,675.369 167.416,677.881 C 168.41,680.167 168.583,680.299 167.798,682.38 C 166.342,686.247 165.624,688.99 167.116,693.137 C 167.727,694.836 169.491,698.788 171.529,699.067 C 170.931,709.942 173.184,721.943 181.645,729.5 z "
   id="path176"
   style="fill:#D1ABB0;stroke:#C8A4A9;stroke-width:0.60000002" />
	
		<linearGradient
   id="linearGradient2464"
   gradientUnits="userSpaceOnUse"
   x1="223.75369"
   y1="104.4973"
   x2="181.72231"
   y2="158.8736"
   gradientTransform="matrix(0.9941,0.1081,0.1081,-0.9941,-19.3507,807.048)">
		<stop
   offset="0"
   style="stop-color:#DABBBF"
   id="stop2466" />
		<stop
   offset="0.2246"
   style="stop-color:#D6B2B7"
   id="stop2468" />
		<stop
   offset="0.49"
   style="stop-color:#D2ABB0"
   id="stop2470" />
		<stop
   offset="0.7172"
   style="stop-color:#D0A8AE"
   id="stop2472" />
		<stop
   offset="0.8945"
   style="stop-color:#D1AAAF"
   id="stop2474" />
		<stop
   offset="1"
   style="stop-color:#D1ABB0"
   id="stop2476" />
	</linearGradient>
	<path
   d="M 176.476,716.347 C 176.561,716.641 176.656,716.935 176.763,717.225 C 179.789,725.432 188.943,731.493 197.427,732.53 C 209.382,733.993 217.829,729.109 224.656,719.524 C 228.085,714.709 229.024,708.874 227.666,703.164 C 226.677,699.001 223.998,690.907 219.847,688.893 C 217.476,687.743 215.336,689.069 212.696,688.903 C 218.913,689.292 216.773,678.001 214.243,675.339 C 212.395,673.396 208.778,672.723 206.179,672.338 C 202.391,671.777 199.508,673.963 195.787,673.789 C 192.085,673.617 189.124,670.429 185.661,670.072 C 181.039,669.595 178.414,673.791 177.509,677.807 C 176.43,682.598 175.426,682.068 172.539,685.566 C 170.296,688.283 168.809,691.855 170.822,695.126 C 172.234,697.417 174.361,698.01 175.246,701.025 C 176.701,705.979 175.058,711.394 176.476,716.347 z "
   id="path191"
   style="fill:url(#XMLID_48_)" />
	<path
   d="M 171.507,686.578 C 175.557,692.19 182.563,696.039 189.385,692.836 C 189.885,693.149 190.329,694.139 190.7,694.607 C 191.293,694.467 191.7,693.703 192.324,693.743 C 196.674,703.416 210.656,688.051 213.611,682.902 C 204.819,694.899 185.774,686.26 195.291,673.104 C 195.298,673.464 195.471,673.733 195.806,673.91 C 201.318,673.31 205.137,672.46 209.876,667.422 C 198.029,675.847 190.16,664.873 192.699,653.499 C 199.405,655.853 206.726,651.341 209.262,645.039 C 197.914,657.239 188.203,641.809 194.932,631.685 C 199.001,635.037 206.272,633.97 209.583,630.017 C 198.288,633.802 193.622,628.724 196.572,618.146 C 198.382,619.749 200.324,619.758 202.859,619.839 C 195.662,616.137 198.523,606.746 201.436,601.202 C 204.449,602.74 206.484,605.044 209.844,604.301 C 206.377,601.834 203.462,598.416 205.241,593.932 C 207.126,592.793 207.977,589.429 209.887,588.691 C 213.24,587.396 215.506,590.955 218.348,588.01 C 216.39,583.611 211.88,580.326 208.824,576.534 C 206.158,573.226 204.575,569.842 202.054,566.383 C 201.888,575.346 200.134,584.074 190.396,574.756 C 189.878,580.097 197.538,582.726 201.941,583.75 C 199.29,590.786 195.362,597.293 186.201,592.271 C 188.818,595.91 193.184,596.748 197.435,597.145 C 196.865,604.625 189.85,610.821 182.347,609.563 C 185.234,611.357 189.699,612.985 192.965,610.645 C 192.889,611.334 192.623,612.044 192.317,612.722 C 192.567,612.785 192.754,612.706 192.874,612.488 C 190.767,618.687 191.349,627.017 182.002,625.07 C 184.136,626.604 186.794,627.089 189.41,626.587 C 189.624,636.267 187.939,638.071 178.544,633.716 C 181.024,636.449 185.605,637.736 189.319,638.511 C 187.022,646.746 187.112,659.449 173.708,654.479 C 176.834,657 180.815,656.9 184.378,656.066 C 186.583,661.157 188.03,666.768 187.432,672.512 C 181.907,673.936 176.991,676.409 171.298,673.853 C 175.846,678.103 183.947,673.685 187.14,676.133 C 188.2,676.946 189.627,688.245 188.869,689.538 C 184.927,696.259 175.419,686.737 170.692,684.133 C 170.34,688.394 175.786,691.23 179.276,692.853"
   id="path193"
   style="fill:#CCA1A6" />
	<path
   d="M 204.838,574.322 C 204.035,584.067 199.057,593.182 196.359,602.49 C 191.293,619.967 188.292,636.336 189.015,654.594 C 189.834,675.256 190.743,712.452 210.041,725.696 C 198.09,706.693 194.886,684.559 193.468,662.349 C 191.867,637.272 194.893,603.879 209.475,582.732 C 211.124,583.323 212.871,583.169 214.383,584.474 C 209.451,579.989 205.371,576.506 203.613,570.026 C 203.8,572.394 203.957,575.392 204.447,577.9"
   id="path195"
   style="fill:#D8B7BC" />
	<path
   d="M 404.611,546.556 C 410.36,547.864 421.772,560.669 423.874,547.023 C 423.075,552.207 423.38,562.875 414.486,558.233 C 413.668,568.651 405.882,564.573 398.852,566.121 C 396.084,566.73 393.694,565.678 391.396,566.667 C 388.074,568.1 385.946,572.293 382.33,573.856 C 377.212,576.068 369.381,578.655 364.008,577.233 C 360.833,581.25 353.598,587.062 348.749,582.971 C 344.595,588.554 338.028,588.044 332.538,589.715 C 329.206,590.73 327.264,592.817 323.51,592.853 C 322.907,592.86 315.5,591.355 316.521,590.641 C 313.034,593.084 306.665,600.819 302.546,597.274 C 298.454,602.847 291.524,600.268 285.525,602.276 C 276.578,605.274 273.74,603.02 265.615,600.868 C 262.969,600.166 260.535,600.813 257.234,599.374 C 254.75,598.29 253.078,595.859 250.178,595.551 C 245.315,595.04 238.251,600.672 236.189,591.69 C 232.207,592.401 225.954,590.972 222.273,589.249 C 220.089,588.227 214.124,580.887 213.273,580.761 C 218.498,581.535 223.709,575.689 228.369,574.218 C 226.012,576.479 222.862,578.74 221.642,581.49 C 224.058,582.373 227.598,582.096 229.835,583.503 C 231.256,584.396 231.711,587.748 234.176,588.844 C 240.61,591.704 246.446,583.73 250.273,578.873 C 248.987,581.497 239.271,590.64 239.787,592.489 C 241.518,598.695 252.899,592.119 255.424,590.762 C 259.597,600.521 266.046,593.646 267.501,586.561 C 269.668,575.997 260.61,573.611 252.419,570.52 C 252.377,571.954 251.707,573.551 251.852,575.029 C 251.183,567.494 230.88,568.186 231.269,565.207 C 230.98,567.411 230.094,569.558 229.691,571.513 C 230.319,569.29 228.857,565.862 225.892,564.391 C 226.627,560.245 223.238,554.941 221.49,550.804 C 223.487,552.559 225.402,554.659 227.011,556.756 C 226.678,555.751 226.719,554.574 226.479,553.588 C 228.932,557.161 235.732,563.655 240.06,560.259 C 239.613,561.311 239.803,562.873 239.24,564.06 C 242.906,568.404 246.024,566.867 246.854,561.931 C 249.057,563.847 263.591,576.2 262.63,566.657 C 263.292,573.18 274.953,574.019 279.365,573.552 C 278.955,572.081 279.069,570.427 278.063,568.909 C 281.52,574.401 295.709,578.441 293.151,567.8 C 294.417,569.111 294.825,571.015 295.333,572.725 C 294.869,573.358 294.354,573.391 293.815,573.886 C 296.731,576.345 301.91,574.246 306.036,574.437 C 302.264,575.375 298.318,578.971 294.575,576.931 C 295.278,579.104 296.067,581.391 296.853,583.527 C 294.125,575.797 288.417,578.152 282.285,578.644 C 283.044,580.479 283.489,582.835 284.666,584.6 C 281.417,580.249 280.381,579.124 275.659,577.836 C 272.74,577.04 271.739,578.89 268.574,577.088 C 269.872,580.132 273.77,586.786 268.653,587.418 C 268.849,589.981 268.31,592.433 267.436,595.01 C 269.911,599.894 287.594,600.477 288.967,595.151 C 291.668,597.372 294.886,595.884 297.304,594.55 C 297.426,593.577 297.836,592.751 298.103,591.936 C 304.701,596.466 312.679,590.591 315.436,584.569 C 317.344,587.453 324.466,590.396 327.395,587.035 C 330.374,583.616 326.707,576.609 323.724,574.412 C 321.276,572.607 319.342,573.659 317.204,572.088 C 315.284,570.68 312.743,566.445 311.525,565.198 C 316.557,569.761 334.252,573.506 326.835,561.79 C 328.116,564.014 329.707,565.951 331.698,567.658 C 336.639,564.769 346.071,565.453 344.899,557.147 C 344.669,559.106 345.66,560.716 346.146,562.487 C 348.716,561.558 351.408,560.584 354.075,559.713 C 347.744,563.042 341.039,565.151 334.835,568.395 C 336.061,569.424 337.036,570.966 338.292,571.845 C 332.567,567.38 327.835,569.015 321.764,571.961 C 326.182,569.817 329.252,580.521 331.182,582.184 C 334.115,584.713 346.554,585.741 341.789,579.91 C 341.611,578.743 341.985,577.01 341.892,575.91 C 348.068,576.889 353.536,583.758 358.75,575.578 C 359.029,575.879 359.314,576.175 359.608,576.465 C 360.476,573.839 360.198,571.233 358.646,568.947 C 363.586,575.63 370.931,578.327 370.953,567.193 C 373.684,579.578 386.964,570.858 389.056,563.034 C 389.544,562.903 391.264,562.406 392.165,562.197 C 404.542,567.383 422.419,557.295 404.465,547.886 C 397.332,544.15 393.607,548.531 386.82,551.25 C 387.745,553.553 388.235,555.976 388.105,558.462 C 385.211,548.454 375.787,553.894 368.984,557.142 C 369.388,558.59 369.332,560.654 369.776,561.902 C 368.698,559.123 367.793,558.677 365.652,556.957 C 370.309,555.377 388.428,548.389 378.716,541.474 C 373.747,537.94 364.655,542.705 365.14,548.725 C 362.371,541.956 369.587,538.568 375.235,537.934 C 379.281,537.48 379.77,538.17 383.416,537.043 C 387.177,535.881 389.632,531.714 393.686,533.921 C 388.616,534.155 380.605,538.693 382.474,544.757"
   id="path197"
   style="fill:#CCA1A6" />
	<path
   d="M 222.877,552.745 C 224.101,553.657 226.189,554.188 227.55,554.822 C 227.506,553.343 228.046,553.449 228.191,552.764 C 229.973,564.613 247.939,566.526 256.931,568.684 C 275.976,573.257 296.389,575.431 315.631,570.588 C 338.333,564.875 362.907,558.241 384.045,548.028 C 388.007,546.115 392.647,544.534 396.346,542.45 C 400.966,539.85 404.311,534.716 409.552,533.271 C 409.889,533.178 405.412,540.133 404.725,540.807 C 402.389,543.092 399.588,544.508 396.749,545.982 C 390.906,549.014 384.033,552.88 377.63,554.47 C 356.956,559.607 337.805,569.648 316.495,573.036 C 296.899,576.15 271.985,578.926 252.774,572.757 C 247.018,570.907 241.115,569.18 235.656,566.541 C 227.321,562.514 228.808,559.358 224.069,552.873"
   id="path199"
   style="fill:#D8B7BC" />
</g></g>
<g stroke="#111" stroke-width="1.1" fill="none"><path d="M 386 44 L 392 104"/><path d="M 130 176 L 206 192"/><path d="M 634 200 L 566 226"/><path d="M 118 296 L 208 322"/><path d="M 168 386 L 243 400"/><path d="M 432 450 L 470 388"/><path d="M 246 480 L 374 470"/><path d="M 262 516 L 376 502"/></g><circle cx="392" cy="104" r="3.2" fill="#111"/><circle cx="206" cy="192" r="3.2" fill="#111"/><circle cx="566" cy="226" r="3.2" fill="#111"/><circle cx="208" cy="322" r="3.2" fill="#111"/><circle cx="243" cy="400" r="3.2" fill="#111"/><circle cx="470" cy="388" r="3.2" fill="#111"/><circle cx="374" cy="470" r="3.2" fill="#111"/><circle cx="376" cy="502" r="3.2" fill="#111"/>
<g font-family="Helvetica Neue, Helvetica, Arial, sans-serif" font-size="21" fill="#111"><text x="452" y="26">Transverse</text><text x="470" y="47">colon</text><text x="42" y="168">Ascending</text><text x="42" y="189">colon</text><text x="640" y="190">Descending</text><text x="700" y="211">colon</text><text x="52" y="300">Cecum</text><text x="80" y="392">Appendix</text><text x="440" y="458">Sigmoid colon</text><text x="172" y="486">Rectum</text><text x="208" y="522">Anus</text></g>
</svg>